HIERARCHY
ROOT Hips
{
  OFFSET 0 0 0
  CHANNELS 6 Xposition Yposition Zposition Zrotation Yrotation Xrotation
  JOINT LeftThigh
  {
    OFFSET 8.409438 0 -5.917753
    CHANNELS 3 Zrotation Yrotation Xrotation
    JOINT LeftLeg
    {
      OFFSET 0 0 -42.358652
      CHANNELS 3 Zrotation Yrotation Xrotation
      JOINT LeftFoot
      {
        OFFSET 0 0 -39.357303
        CHANNELS 3 Zrotation Yrotation Xrotation
      }
    }
  }
  JOINT RightThigh
  {
    OFFSET -8.409438 0 -5.917753
    CHANNELS 3 Zrotation Yrotation Xrotation
    JOINT RightLeg
    {
      OFFSET 0 0 -42.358652
      CHANNELS 3 Zrotation Yrotation Xrotation
      JOINT RightFoot
      {
        OFFSET 0 0 -39.357303
        CHANNELS 3 Zrotation Yrotation Xrotation
      }
    }
  }
  JOINT SpineLow
  {
    OFFSET 0 0 4.719101
    CHANNELS 3 Zrotation Yrotation Xrotation
    JOINT SpineMid
    {
      OFFSET 0 0 12.899191
      CHANNELS 3 Zrotation Yrotation Xrotation
      JOINT Chest
      {
        OFFSET 0 0 12.899191
        CHANNELS 3 Zrotation Yrotation Xrotation
        JOINT LeftShoulder
        {
          OFFSET 7.550562 1.41573 9.438202
          CHANNELS 3 Zrotation Yrotation Xrotation
          JOINT LeftArm
          {
            OFFSET 9.155056 0 4.247191
            CHANNELS 3 Zrotation Yrotation Xrotation
            JOINT LeftForearm
            {
              OFFSET 0 0 25.771955
              CHANNELS 3 Zrotation Yrotation Xrotation
              JOINT LeftHand
              {
                OFFSET 0 0 25.197169
                CHANNELS 3 Zrotation Yrotation Xrotation
              }
            }
          }
        }
        JOINT RightShoulder
        {
          OFFSET -7.550562 1.41573 9.438202
          CHANNELS 3 Zrotation Yrotation Xrotation
          JOINT RightArm
          {
            OFFSET -9.155056 0 4.247191
            CHANNELS 3 Zrotation Yrotation Xrotation
            JOINT RightForearm
            {
              OFFSET 0 0 -25.771955
              CHANNELS 3 Zrotation Yrotation Xrotation
              JOINT RightHand
              {
                OFFSET 0 0 -25.197169
                CHANNELS 3 Zrotation Yrotation Xrotation
              }
            }
          }
        }
        JOINT Neck
        {
          OFFSET 0 0 15.101124
          CHANNELS 3 Zrotation Yrotation Xrotation
          JOINT Head
          {
            OFFSET 0 0 11.325843
            CHANNELS 3 Zrotation Yrotation Xrotation
            End Site
            {
              OFFSET 0 0 14.157303
            }
          }
        }
      }
    }
  }
}
MOTION
Frames: 16
Frame Time: 0.0
0.0  89.887642  0.0  -1.687152  -24.900647  -98.543863  24.514487  -16.4719  2.752445  7.244141  1.578017  23.134515  -1.701136  -0.537729  -1.945412  -5.672541  7.734915  4.688266  -9.020678  5.219641  3.406468  5.131552  1.463673  -0.465393  -3.188375  -0.601538  0.7011  -8.733188  -1.548471  1.992116  -8.733188  -1.548471  1.992116  -25.952906  1.92298  -1.303372  -116.41603  56.863957  -41.709405  -45.188699  13.620668  97.718584  165.902954  29.862201  18.850988  -12.848943  -11.720126  4.764085  58.462339  13.888853  42.330641  4.279031  8.041714  -105.460554  84.74773  -10.555442  -26.910516  -0.390934  -4.508428  -18.858248  -0.432989  -3.373067  -14.139256  
0.0  89.887642  0.0  -1.624774  -20.537974  -97.356608  21.430944  -15.749131  1.342692  5.516989  2.592338  23.157557  -1.620301  -0.481458  -2.105036  -7.899579  8.346588  3.708727  -9.709066  5.336872  3.536213  4.7409  1.431816  -0.418231  -3.339453  -0.507938  0.675095  -9.142507  -1.292131  1.911539  -9.142507  -1.292131  1.911539  -25.511671  -2.021518  -1.75303  -103.113125  57.150793  -28.635035  -44.89962  -2.741849  97.834956  162.936437  28.554165  37.11777  -14.47031  -10.31161  6.723937  55.462719  12.787966  45.879299  4.115092  6.757179  -104.443859  85.494324  -11.915963  -23.820273  -1.55082  -4.696066  -20.606634  -1.323009  -3.474472  -15.458326  
0.0  89.887642  0.0  -1.250053  -16.542014  -95.803649  18.50283  -14.959652  -0.239718  4.350801  3.472847  22.913201  -1.585678  -0.341407  -2.295295  -9.662812  8.848128  2.057067  -10.054556  5.654842  3.899114  4.255334  1.410759  -0.296594  -3.43852  -0.504323  0.489966  -9.409764  -1.30568  1.407943  -9.409763  -1.30568  1.407943  -25.309397  -5.34213  -1.93542  -89.553704  56.335833  -17.024327  -44.16052  -17.375526  96.157385  154.672962  24.405071  51.446871  -16.374309  -8.456792  9.33473  52.805127  12.137794  49.484946  5.112412  3.120627  -101.646954  86.760889  -11.864413  -20.497039  -2.596575  -4.528179  -22.293572  -2.115368  -3.306695  -16.731033  
0.0  89.887642  0.0  -0.726313  -14.057447  -94.723757  17.095962  -14.378458  -1.316798  3.913493  3.812308  22.720398  -2.20646  -0.343129  -2.640025  -9.827797  9.257072  0.60037  -10.328496  6.052052  4.672474  4.057163  1.33677  -0.209389  -3.960626  -0.884443  0.388017  -10.844072  -2.346561  1.202424  -10.844072  -2.346561  1.202424  -21.281802  -6.757342  -3.073851  -77.980182  54.763366  -9.041259  -41.952412  -29.196886  93.147282  143.926384  18.778383  60.49016  -13.210892  -4.96744  9.363167  50.163751  10.325688  53.598733  7.152487  -1.51194  -99.518683  85.921617  -12.35865  -16.616777  -0.862511  -3.328102  -24.092669  -0.779592  -2.466614  -18.069133  
0.0  89.887642  0.0  -0.259271  -11.796444  -94.957303  15.786028  -13.969062  -0.545202  3.382837  3.654381  21.799839  -2.836618  -0.290204  -3.097226  -10.152944  9.883578  0.082282  -10.020582  6.296668  6.09649  3.616937  1.283325  -0.055667  -4.536198  -1.354671  0.645267  -12.445617  -3.566713  2.012122  -12.445616  -3.566713  2.012122  -16.768609  -7.898678  -5.126954  -67.133671  53.455814  -2.721553  -36.85078  -38.342901  87.319332  132.032744  13.754628  63.6883  -10.353903  -0.469885  7.116162  49.334168  6.946619  56.852556  9.330358  -7.838418  -98.215343  82.886429  -12.584152  -13.883245  1.224137  -1.974848  -26.327648  0.834657  -1.537319  -19.739926  
0.0  89.887642  0.0  0.458  -10.074959  -95.089132  15.243058  -13.212524  0.379688  2.694074  3.603114  20.370023  -2.89991  -0.239158  -3.613794  -11.117124  10.993857  -0.798289  -9.111491  6.184812  7.755183  3.032738  1.511635  -0.119394  -4.534393  -1.570603  0.808888  -12.460321  -4.123664  2.499159  -12.460321  -4.123664  2.499159  -14.764233  -9.520491  -6.025183  -54.604144  52.060853  4.538527  -30.996876  -43.988171  79.780083  119.361769  9.458909  61.734963  -11.884369  2.65214  6.100071  50.141551  4.710495  58.478143  12.873239  -14.741098  -98.504449  76.891258  -10.410326  -13.997289  1.226022  -1.334061  -28.008637  0.8604  -1.059451  -21.002962  
0.0  89.887642  0.0  0.600351  -10.631192  -94.107009  17.421846  -12.821063  0.004529  2.335659  3.571893  18.809155  -2.492655  -0.280346  -3.640535  -10.909717  11.122678  -2.431758  -8.433448  6.239265  8.843464  2.838862  1.679737  -0.092047  -3.96026  -1.513722  0.785996  -10.885205  -3.995696  2.392182  -10.885205  -3.995696  2.392182  -14.122651  -12.255498  -5.287854  -41.122081  48.555514  12.318327  -24.07007  -45.752939  71.194094  106.719888  5.251454  56.479828  -13.663948  2.129972  6.758288  50.130478  4.363383  59.26802  18.342536  -23.139596  -100.497974  74.981  -8.453963  -14.046322  -0.057337  -2.145677  -28.738034  -0.144447  -1.610794  -21.551195  
0.0  89.887642  0.0  1.632054  -10.330308  -94.950038  18.426674  -11.919511  1.387688  3.305754  3.111181  17.672114  -3.237706  -0.559042  -3.435571  -11.713465  12.352145  -2.651122  -7.613961  6.473584  9.662349  2.910719  1.800088  -0.041491  -3.464298  -1.059307  0.987776  -9.515868  -2.746755  2.846735  -9.515868  -2.746755  2.846735  -14.576465  -16.174448  -4.313542  -29.021484  43.708278  19.303721  -16.981718  -44.815086  61.193918  97.689685  -2.02489  50.761283  -16.259343  0.30902  7.094028  50.101322  4.963028  59.487136  22.391251  -27.650741  -101.558703  75.542195  -8.63605  -12.011127  -2.021235  -3.713385  -28.999494  -1.696592  -2.696296  -21.754503  
0.0  89.887642  0.0  2.06713  -9.828798  -95.88993  18.95168  -11.459054  2.551508  4.553781  2.208938  17.173154  -4.782587  -0.780535  -3.422457  -12.900909  12.979568  -2.543562  -6.683886  6.665323  10.29392  3.141068  1.959611  -0.143062  -3.257009  -0.800805  1.154126  -8.941213  -2.028522  3.256801  -8.941212  -2.028522  3.2568  -13.6499  -19.028131  -2.55875  -18.681523  41.096436  24.034613  -10.110056  -46.931357  52.324124  89.475076  -11.709707  44.556437  -16.936894  -0.775831  7.160222  50.066398  5.735155  59.628986  20.895922  -26.624105  -99.70081  77.069562  -9.104433  -10.887343  -3.269199  -4.905523  -28.647473  -2.688156  -3.535163  -21.499343  
0.0  89.887642  0.0  1.974496  -9.424016  -94.553555  19.62225  -10.54206  1.286597  4.498249  1.229819  16.731428  -5.375827  -0.750384  -3.353366  -14.374912  12.51566  -4.167425  -6.034309  6.831215  10.396526  3.246437  2.087721  -0.242504  -3.231061  -0.862116  0.98396  -8.868283  -2.219891  2.800087  -8.868282  -2.219891  2.800087  -12.199591  -22.303288  -1.946065  -10.485419  42.39987  29.524776  0.02702  -49.874484  41.3919  84.699103  -18.654126  37.493155  -16.183925  -0.971535  7.013446  50.046874  6.275792  59.473934  16.996292  -22.831549  -97.341739  79.104167  -9.397385  -10.768596  -3.787206  -5.431136  -28.155453  -3.097264  -3.908846  -21.135283  
0.0  89.887642  0.0  2.2998  -9.906445  -94.244159  20.375723  -9.526509  1.231735  3.486975  0.591048  16.11553  -4.713734  -0.732438  -3.150548  -14.551559  12.509807  -4.563366  -5.978137  7.017955  9.980557  3.303078  2.1197  -0.314421  -3.043532  -0.818532  0.888518  -8.350641  -2.121229  2.527981  -8.350641  -2.121229  2.527981  -11.217889  -25.55351  -1.308435  -5.021236  46.334125  34.756861  6.534543  -53.346392  33.317274  82.106307  -19.291518  32.454405  -15.692794  -1.465416  7.373518  49.967361  7.19425  59.226025  14.335816  -18.952429  -96.204587  80.173848  -9.894251  -11.460064  -4.470862  -5.729957  -27.393452  -3.61686  -4.10709  -20.571088  
0.0  89.887642  0.0  2.551126  -10.54045  -94.318617  20.378381  -8.963841  1.608634  2.919441  0.405352  15.692896  -3.765171  -0.744668  -3.023654  -14.479181  12.506554  -4.328942  -6.402072  7.141079  9.201998  3.325079  2.089711  -0.369495  -2.728321  -0.798632  0.79186  -7.485143  -2.090238  2.252038  -7.485143  -2.090237  2.252038  -10.081437  -24.91161  0.286486  -7.796159  47.230757  32.62467  3.469502  -57.170142  35.835882  79.333613  -16.351913  32.818478  -15.903812  -1.940467  8.110984  49.795146  8.301627  58.706806  13.478668  -16.862751  -95.905747  80.205688  -10.08704  -13.031808  -5.399185  -5.5541  -26.495537  -4.297509  -3.940613  -19.906923  
0.0  89.887642  0.0  2.73915  -10.337501  -94.582061  18.642364  -8.776057  2.139076  5.202246  0.086212  16.497115  -4.693433  -0.849396  -3.841603  -13.819181  12.95839  -3.160264  -8.63859  6.899009  7.981055  3.457351  2.027971  -0.405264  -2.480654  -0.802773  0.749409  -6.806902  -2.114566  2.128932  -6.806902  -2.114566  2.128932  -9.322949  -21.982335  0.354948  -16.330641  45.35588  26.99304  -1.563427  -56.171823  43.374022  81.498001  -13.807528  33.409244  -16.259606  -2.429091  8.449413  49.718709  8.979484  58.041632  14.230411  -16.963996  -96.436905  80.139152  -10.259615  -14.089621  -6.268316  -5.044002  -25.757956  -4.921851  -3.526604  -19.36008  
0.0  89.887642  0.0  2.997929  -9.731837  -95.193781  16.122621  -8.700549  2.934775  6.852337  0.173559  16.565514  -4.567738  -0.796421  -3.76769  -14.991093  13.483325  -2.298997  -9.479895  6.715706  7.051589  3.564254  1.954883  -0.43642  -2.292655  -0.761699  0.70402  -6.29011  -2.012957  1.995131  -6.29011  -2.012957  1.995131  -10.180178  -19.138517  0.095616  -22.452655  44.470199  23.537642  -3.24205  -56.210723  47.961866  83.820342  -12.558354  33.777054  -16.58407  -2.794339  8.708993  49.93563  9.073289  57.491582  15.22964  -17.538383  -96.921497  80.387546  -10.747276  -14.763031  -7.034485  -4.474097  -24.885435  -5.466605  -3.075544  -18.708984  
0.0  89.887642  0.0  2.726755  -8.846632  -95.650899  13.481661  -9.072213  3.443337  8.423274  0.277495  16.733512  -4.587024  -0.758643  -3.694575  -16.169006  13.643284  -1.329372  -10.455753  6.45922  6.197611  3.624402  1.852074  -0.444193  -2.210329  -0.760029  0.610136  -6.062195  -2.019568  1.736082  -6.062195  -2.019568  1.736082  -10.94813  -16.98243  1.183392  -27.981223  44.010614  20.664623  -3.920227  -57.627  50.449379  85.257091  -10.884825  34.611716  -16.761447  -3.179464  9.262543  50.53187  9.069281  57.097028  15.35518  -17.287849  -96.78515  80.776689  -11.377909  -15.474973  -7.723409  -4.112141  -23.974004  -5.962639  -2.786602  -18.02813  
0.0  89.887642  0.0  2.693246  -7.936336  -95.873564  11.344506  -9.118694  3.608024  9.288654  0.398991  16.978593  -4.603441  -0.747834  -3.683556  -16.990582  13.959545  -0.601299  -11.461706  6.238719  5.39951  3.706435  1.723464  -0.477227  -2.185588  -0.721108  0.465155  -5.989274  -1.927118  1.335754  -5.989275  -1.927118  1.335754  -11.504512  -15.493605  2.398306  -31.377393  43.657583  19.133597  -7.011678  -58.397769  53.580808  87.093805  -8.573132  35.775407  -16.688737  -3.480434  9.775651  51.279219  8.862219  56.857656  14.769688  -16.112331  -96.294115  81.095415  -11.927303  -16.065825  -8.425226  -3.901724  -23.211313  -6.476055  -2.611199  -17.459455  
